<svg xmlns="http://www.w3.org/2000/svg" width="1536" height="864" viewBox="0 0 1536 864" role="img" aria-label="Let’s Play Necronomicon cover">
  <defs>
    <radialGradient id="g1" cx="50%" cy="52%" r="70%">
      <stop offset="0" stop-color="#173b21"/>
      <stop offset="0.45" stop-color="#07120c"/>
      <stop offset="1" stop-color="#020403"/>
    </radialGradient>
    <linearGradient id="gold" x1="0" x2="0" y1="0" y2="1">
      <stop offset="0" stop-color="#fff8c8"/>
      <stop offset="0.45" stop-color="#e3d58b"/>
      <stop offset="1" stop-color="#9f8740"/>
    </linearGradient>
    <filter id="glow"><feGaussianBlur stdDeviation="7" result="b"/><feMerge><feMergeNode in="b"/><feMergeNode in="SourceGraphic"/></feMerge></filter>
    <filter id="shadow"><feDropShadow dx="0" dy="14" stdDeviation="14" flood-color="#000" flood-opacity=".7"/></filter>
  </defs>
  <rect width="1536" height="864" fill="url(#g1)"/>
  <g opacity=".25" stroke="#a8ff9e" fill="none">
    <circle cx="768" cy="430" r="300"/>
    <circle cx="768" cy="430" r="220"/>
    <path d="M768 110l280 520H488z"/>
    <path d="M468 430h600M768 130v600"/>
  </g>
  <g opacity=".22" fill="#102115">
    <path d="M120 170c95 45 60 140 8 205 92-48 170-30 228 55-15-130-72-220-236-260z"/>
    <path d="M1416 170c-95 45-60 140-8 205-92-48-170-30-228 55 15-130 72-220 236-260z"/>
  </g>
  <g filter="url(#shadow)">
    <path d="M535 610l92-190 360 26-72 214z" fill="#08100b" stroke="#7cff9c" stroke-opacity=".35" stroke-width="4"/>
    <path d="M575 590l70-137 295 20-51 151z" fill="#111a12" stroke="#e3d58b" stroke-opacity=".28" stroke-width="3"/>
    <path d="M677 515c60-46 134-45 196 3-60 47-136 46-196-3z" fill="#0b1b11" stroke="#7cff9c" stroke-width="4"/>
    <circle cx="775" cy="515" r="28" fill="#7cff9c" opacity=".85" filter="url(#glow)"/>
  </g>
  <g opacity=".75">
    <rect x="108" y="530" width="150" height="96" rx="12" fill="#15100d" stroke="#6b552e"/>
    <rect x="1268" y="528" width="150" height="96" rx="12" fill="#15100d" stroke="#6b552e"/>
    <path d="M142 500c18-44 34-70 50 0" stroke="#ffce7b" stroke-width="10" stroke-linecap="round" filter="url(#glow)"/>
    <path d="M1298 498c18-44 34-70 50 0" stroke="#ffce7b" stroke-width="10" stroke-linecap="round" filter="url(#glow)"/>
  </g>
  <text x="768" y="195" text-anchor="middle" font-family="Georgia, 'Times New Roman', serif" font-size="98" font-weight="900" letter-spacing="8" fill="url(#gold)" stroke="#251b09" stroke-width="3">LET’S PLAY</text>
  <text x="768" y="360" text-anchor="middle" font-family="Georgia, 'Times New Roman', serif" font-size="148" font-weight="900" letter-spacing="4" fill="url(#gold)" stroke="#251b09" stroke-width="4">NECRONOMICON</text>
  <g opacity=".35" filter="url(#glow)">
    <path d="M0 650c220-90 420-30 610-30 200 0 390-110 610-70 110 20 205 65 316 20v294H0z" fill="#0fb653"/>
  </g>
</svg>
